solid Created by Gmsh
facet normal 1 0 -0
  outer loop
    vertex 0.5217000000000001 0.026 0.02174
    vertex 0.5217000000000001 0.026 0.2174
    vertex 0.5217000000000001 0 0.02174
  endloop
endfacet
facet normal 1 0 0
  outer loop
    vertex 0.5217000000000001 0 0.02174
    vertex 0.5217000000000001 0.026 0.2174
    vertex 0.5217000000000001 0 0.2174
  endloop
endfacet
facet normal -1 0 0
  outer loop
    vertex 0.526 0 0.2174
    vertex 0.526 0.026 0.02174
    vertex 0.526 0 0.02174
  endloop
endfacet
facet normal -1 -0 -0
  outer loop
    vertex 0.526 0.026 0.2174
    vertex 0.526 0.026 0.02174
    vertex 0.526 0 0.2174
  endloop
endfacet
facet normal 0 0 -1
  outer loop
    vertex 0.5217000000000001 0.026 0.02174
    vertex 0.526 0 0.02174
    vertex 0.5217000000000001 0 0.02174
  endloop
endfacet
facet normal -0 -0 -1
  outer loop
    vertex 0.526 0.026 0.02174
    vertex 0.526 0 0.02174
    vertex 0.5217000000000001 0.026 0.02174
  endloop
endfacet
endsolid Created by Gmsh
